HIERARCHY
ROOT Hips
{
	OFFSET -3.958830 18.904000 13.208200
	CHANNELS 6 Xposition Yposition Zposition Zrotation Yrotation Xrotation 
	JOINT LHipJoint
	{
		OFFSET 0.000000 0.000000 0.000000
		CHANNELS 3 Zrotation Yrotation Xrotation
		JOINT LeftUpLeg
		{
			OFFSET 1.800000 -1.400000 0.085000
			CHANNELS 3 Zrotation Yrotation Xrotation
			JOINT LeftLeg
			{
				OFFSET 2.215000 -6.000000 0.000000
				CHANNELS 3 Zrotation Yrotation Xrotation
				JOINT LeftFoot
				{
					OFFSET 2.500000 -6.900000 0.000000
					CHANNELS 3 Zrotation Yrotation Xrotation
					JOINT LeftToeBase
					{
						OFFSET 0.200000 -0.500000 1.950000
						CHANNELS 3 Zrotation Yrotation Xrotation
						End Site
						{
							OFFSET 0.000000 0.000000 0.000000
						}
					}
				}
			}
		}
	}
	JOINT RHipJoint
	{
		OFFSET 0.000000 0.000000 0.000000
		CHANNELS 3 Zrotation Yrotation Xrotation
		JOINT RightUpLeg
		{
			OFFSET -1.800000 -1.400000 0.085000
			CHANNELS 3 Zrotation Yrotation Xrotation
			JOINT RightLeg
			{
				OFFSET -2.215000 -6.000000 0.000000
				CHANNELS 3 Zrotation Yrotation Xrotation
				JOINT RightFoot
				{
					OFFSET -2.500000 -6.900000 0.000000
					CHANNELS 3 Zrotation Yrotation Xrotation
					JOINT RightToeBase
					{
						OFFSET -0.200000 -0.500000 1.950000
						CHANNELS 3 Zrotation Yrotation Xrotation
						End Site
						{
							OFFSET 0.000000 0.000000 0.000000
						}
					}
				}
			}
		}
	}
	JOINT LowerBack
	{
		OFFSET 0.000000 0.000000 0.000000
		CHANNELS 3 Zrotation Yrotation Xrotation
		JOINT Spine
		{
			OFFSET -0.087000 1.940000 -0.288900
			CHANNELS 3 Zrotation Yrotation Xrotation
			JOINT Spine1
			{
				OFFSET 0.000000 1.950000 0.060000
				CHANNELS 3 Zrotation Yrotation Xrotation
				JOINT Neck
				{
					OFFSET 0.000000 0.000000 0.000000
					CHANNELS 3 Zrotation Yrotation Xrotation
					JOINT Neck1
					{
						OFFSET 0.000000 1.600000 0.340000
						CHANNELS 3 Zrotation Yrotation Xrotation
						JOINT Head
						{
							OFFSET 0.000000 1.667000 -0.240000
							CHANNELS 3 Zrotation Yrotation Xrotation
							End Site
							{
								OFFSET 0.000000 0.000000 0.000000
							}
						}
					}
				}
				JOINT LeftShoulder
				{
					OFFSET 0.000000 0.000000 0.000000
					CHANNELS 3 Zrotation Yrotation Xrotation
					JOINT LeftArm
					{
						OFFSET 2.700000 1.550000 -0.730000
						CHANNELS 3 Zrotation Yrotation Xrotation
						JOINT LeftForeArm
						{
							OFFSET 5.450000 0.000000 0.000000
							CHANNELS 3 Zrotation Yrotation Xrotation
							JOINT LeftHand
							{
								OFFSET 3.450000 0.000000 0.000000
								CHANNELS 3 Zrotation Yrotation Xrotation
								JOINT LeftHandIndex1
								{
									OFFSET 0.750000 0.000000 0.000000
									CHANNELS 3 Zrotation Yrotation Xrotation
									End Site
									{
										OFFSET 0.000000 0.000000 0.000000
									}
								}
							}
						}
					}
				}
				JOINT RightShoulder
				{
					OFFSET 0.000000 0.000000 0.000000
					CHANNELS 3 Zrotation Yrotation Xrotation
					JOINT RightArm
					{
						OFFSET -2.700000 1.550000 -0.730000
						CHANNELS 3 Zrotation Yrotation Xrotation
						JOINT RightForeArm
						{
							OFFSET -5.450000 0.000000 0.000000
							CHANNELS 3 Zrotation Yrotation Xrotation
							JOINT RightHand
							{
								OFFSET -3.450000 0.000000 0.000000
								CHANNELS 3 Zrotation Yrotation Xrotation
								JOINT RightHandIndex1
								{
									OFFSET -0.750000 0.000000 0.000000
									CHANNELS 3 Zrotation Yrotation Xrotation
									End Site
									{
										OFFSET 0.000000 0.000000 0.000000
									}
								}
							}
						}
					}
				}
			}
		}
	}
}
MOTION
Frames: 10
Frame Time: 0.016667
1.242010 16.951250 -0.115590 -3.521344 -19.323119 -1.133944 -15.302253 14.018958 3.776545 10.668861 0.221794 -1.773764 -13.255855 5.400378 -0.150929 -0.859812 6.016047 2.802479 -0.452710 -0.868590 -0.633190 18.076316 -9.942634 2.821513 -1.435939 -0.643141 -1.506411 0.449663 -4.367483 4.699920 -0.400401 -3.507373 3.454630 -0.315380 0.970010 0.213490 -2.814589 -4.718682 -8.319726 7.227398 -5.666882 26.117920 -8.950626 -2.674756 11.147159 6.477620 -7.128231 -20.157495 -22.625130 15.583362 43.217195 -4.050020 5.856930 -16.022080 -22.073467 -23.141659 9.503473 -22.046252 -4.130196 2.608798 3.296624 1.758987 -1.271336 -4.166802 1.912759 1.275470 0.262610 -0.119470 0.199180 10.558482 28.664326 15.728469 30.205910 -0.822900 -15.630663 -133.088599 43.135099 -107.520753 1.489117 -0.762145 -0.912580 0.921350 0.858670 -0.185230 
1.166470 16.952680 -0.129070 -3.147430 -19.666877 -0.382762 -15.433026 14.159323 3.700786 9.523151 0.328348 -2.541345 -11.548613 5.144552 0.005700 -0.906742 5.751311 2.891213 -0.469050 -0.897650 -0.629850 17.928377 -9.877291 2.877534 -3.000563 -0.537433 -1.532710 3.894513 -4.737628 3.513817 -0.391447 -3.583021 3.433050 -0.335960 0.958980 0.209640 -2.388097 -4.985392 -8.402991 4.450444 -3.429000 25.201316 -5.984694 -1.145112 10.040245 6.393967 -6.839430 -19.657012 -21.388502 14.824553 44.862070 -4.457180 5.710400 -15.246730 -22.233009 -21.489033 9.045122 -24.254963 -2.543757 2.312579 2.686632 1.578183 -1.271857 -4.156702 1.939909 1.279980 0.259660 -0.123400 0.187290 11.151775 27.927437 15.877354 31.463302 -0.819252 -15.017551 -134.497669 42.014175 -108.091082 1.511589 -0.755518 -0.915840 0.904890 0.863120 -0.196080 
1.085560 16.959170 -0.142220 -2.344336 -20.142878 -0.092535 -15.588777 14.290281 3.574727 7.884764 0.446083 -3.160207 -9.648965 4.956751 0.782068 -0.970597 5.477201 2.979250 -0.482890 -0.923450 -0.614910 17.766518 -9.821116 2.913479 -4.786613 -0.417982 -1.525268 6.824854 -5.040832 2.591961 -0.390477 -3.703209 3.388509 -0.349060 0.944630 0.204940 -1.903330 -5.204728 -8.411243 0.584208 -0.973132 24.045138 -2.520733 0.343411 9.712786 6.213121 -6.339082 -19.193169 -19.476351 14.034265 46.398271 -5.068860 5.858980 -14.847180 -22.103187 -20.240293 8.770944 -26.490164 -1.129775 1.975116 2.407159 1.787043 -1.267519 -4.163016 1.953337 1.287200 0.258640 -0.126190 0.168770 11.669225 27.404310 15.969096 32.533154 -0.106369 -14.354327 -135.916647 40.615204 -108.739566 1.528497 -0.742819 -0.925190 0.892900 0.869160 -0.214690 
1.006890 16.973700 -0.155660 -1.586487 -20.065139 -0.372234 -15.721422 14.408593 3.402686 6.266775 0.576319 -3.700655 -7.520509 4.840893 2.326931 -1.029070 5.207489 3.059946 -0.470290 -0.916670 -0.593630 17.636683 -9.772406 2.949493 -6.284155 -0.341491 -1.104632 9.085242 -5.301937 1.923963 -0.422089 -3.864828 3.324457 -0.352080 0.917100 0.215050 -1.514259 -5.384353 -8.332645 -2.882731 1.225830 23.362333 0.855305 1.608207 9.795865 5.931972 -5.981926 -18.834379 -18.034040 13.246641 47.715265 -5.645780 5.649840 -15.376720 -21.720955 -19.366211 8.619066 -28.571623 -0.008971 1.507487 2.025208 1.329693 -1.302660 -4.144731 1.977538 1.300050 0.245490 -0.109140 0.162530 12.100120 27.187984 16.060995 33.909862 0.760227 -14.141722 -136.981597 39.101482 -109.247585 1.543037 -0.736074 -0.913670 0.875690 0.861660 -0.224580 
0.924950 16.986050 -0.161710 -0.725728 -20.225339 -0.864719 -15.809726 14.506556 3.212886 4.409306 0.686892 -4.354199 -5.117407 4.750236 4.727702 -1.091889 4.932944 3.136458 -0.453940 -0.906380 -0.571520 17.547018 -9.786460 2.973213 -7.697404 -0.265366 -0.664323 10.773476 -5.568965 1.779336 -0.456588 -4.022706 3.260042 -0.355010 0.886160 0.220520 -1.241748 -5.437859 -8.186822 -6.050071 3.480379 22.455139 4.172795 2.948593 9.903760 5.412537 -5.674436 -18.727994 -16.888000 12.699942 49.497050 -5.654320 5.360960 -15.729950 -21.157512 -18.738387 8.691541 -30.757213 1.470367 0.766790 1.509258 -0.401343 -1.395681 -4.099674 1.998032 1.320920 0.223860 -0.087110 0.158150 12.839636 27.143014 16.220466 35.682062 1.592000 -14.012767 -138.018245 37.529648 -109.759196 1.561101 -0.723731 -0.902510 0.861830 0.851890 -0.234300 
0.850830 16.993640 -0.171390 0.219670 -20.440586 -1.624175 -15.871946 14.613507 3.013835 2.080349 0.716676 -5.434536 -1.954315 4.585866 8.348078 -1.169427 4.668548 3.207081 -0.444950 -0.895650 -0.561830 17.483498 -9.798795 3.001523 -9.058984 -0.195189 -0.034881 12.080109 -5.795755 1.575937 -0.493032 -4.181838 3.197665 -0.352750 0.864950 0.213950 -1.047491 -5.522779 -8.003440 -9.185844 5.671531 21.890539 7.475236 4.217101 10.005198 4.741352 -5.566477 -18.631241 -16.136128 12.304839 50.922177 -5.341910 4.953480 -16.618690 -20.562433 -18.215703 8.846676 -33.037370 3.131933 -0.283303 0.831194 -3.211129 -1.537741 -4.041871 1.997390 1.348300 0.199990 -0.067710 0.155020 13.815110 27.273365 16.184607 36.626194 2.797560 -13.973984 -138.604211 36.111700 -109.446947 1.571702 -0.697389 -0.904730 0.869030 0.849170 -0.241370 
0.789910 16.996080 -0.189760 0.708077 -21.056881 -2.682650 -15.907306 14.743637 2.856294 -0.147423 0.651113 -7.011573 1.692269 4.340734 13.184446 -1.205770 4.542686 3.221148 -0.426380 -0.871550 -0.543390 17.442395 -9.829018 2.995815 -9.808334 -0.149953 0.672258 12.702651 -6.043561 2.086781 -0.520346 -4.298434 3.156837 -0.348800 0.835720 0.214400 -0.911213 -5.646651 -7.831777 -11.466604 7.728337 22.182056 10.182429 5.539446 10.298965 4.252994 -5.469272 -18.557921 -15.174417 11.837417 51.717906 -5.775630 4.837560 -17.783670 -20.026524 -17.945971 9.137906 -35.286493 5.148719 -1.814927 0.089378 -7.126238 -1.707893 -3.970361 2.003516 1.364750 0.179480 -0.042910 0.156520 14.382551 27.798102 15.978927 37.279075 4.809234 -14.168602 -138.338033 35.169284 -108.399284 1.583280 -0.674716 -0.893470 0.865860 0.832870 -0.245500 
0.739360 16.994260 -0.208550 0.703455 -21.276652 -4.186836 -15.922661 14.865121 2.769714 -2.211947 0.539292 -8.745763 6.024154 3.854340 18.714637 -1.199459 4.664097 3.139575 -0.412250 -0.857120 -0.524580 17.415897 -9.856263 2.998967 -10.046148 -0.153185 1.999259 13.137545 -6.358031 2.887729 -0.554864 -4.440090 3.115075 -0.346350 0.802510 0.202560 -0.834197 -5.788072 -7.754995 -12.218543 9.333121 23.740994 11.658998 6.866260 10.771870 3.951722 -5.444050 -18.821464 -14.498101 11.391600 52.592217 -6.199080 4.472360 -18.915050 -19.679194 -18.273428 9.648250 -36.788819 7.647599 -3.873067 -1.558390 -12.459813 -1.884434 -3.879554 2.001052 1.388020 0.154220 -0.024880 0.150460 14.718438 29.038901 15.980846 38.255669 6.894205 -14.831635 -137.932123 34.109698 -107.502569 1.590560 -0.636805 -0.891270 0.869930 0.823600 -0.257570 
0.697330 16.973060 -0.218660 0.439947 -21.275716 -5.366073 -15.933106 14.883596 2.783936 -4.547866 0.181814 -11.289406 10.886728 2.981916 24.612974 -1.119953 5.052859 2.962592 -0.404850 -0.848260 -0.523180 17.404001 -9.863315 2.991308 -10.074349 -0.140325 3.226501 13.662177 -6.691380 3.779061 -0.588909 -4.599155 3.058473 -0.347870 0.789070 0.206370 -0.804660 -5.837789 -7.742821 -12.141626 10.569295 25.484120 12.872552 8.211614 10.495613 3.520649 -5.674184 -18.650696 -14.146636 10.971402 52.572008 -6.515590 4.011440 -19.575140 -19.219375 -17.580167 9.576011 -38.541043 9.732843 -6.309056 -4.160162 -18.208720 -1.925511 -3.816994 2.032559 1.390580 0.142210 -0.016660 0.152560 15.165574 29.392405 15.661692 39.201839 8.900200 -15.114740 -137.665152 33.811814 -107.219133 1.606077 -0.625252 -0.880370 0.862160 0.818250 -0.254540 
0.672580 16.940720 -0.217330 -0.416076 -21.346679 -6.518715 -15.930324 14.837901 2.871278 -6.527873 -0.235266 -14.106230 15.744439 1.837788 30.554306 -0.980916 5.761084 2.680972 -0.410730 -0.843930 -0.545920 17.409433 -9.852429 3.001943 -9.672870 -0.183098 4.807190 14.161722 -7.037717 4.582414 -0.632196 -4.782001 3.009522 -0.343950 0.799310 0.194920 -0.826515 -5.818550 -7.832477 -10.500896 11.084585 27.857068 13.132251 9.520302 9.829343 3.192501 -6.141218 -18.500687 -14.460991 11.084948 52.822276 -6.329720 3.593680 -19.845840 -18.963305 -16.537645 9.375393 -40.210475 11.937612 -8.880248 -7.976958 -23.908104 -1.652582 -3.771791 2.053693 1.397160 0.139970 -0.017800 0.162430 15.580344 29.518095 15.269200 40.011962 10.727250 -15.394053 -136.955293 34.365678 -106.897827 1.614281 -0.588520 -0.889590 0.882120 0.822160 -0.246660 
